<svg xmlns="http://www.w3.org/2000/svg" xmlns:xlink="http://www.w3.org/1999/xlink" width="48" height="48" viewBox="0 0 48 48">
    <defs>
        <path id="a" d="M0 0h50v50H0z"/>
    </defs>
    <g fill="none" fill-rule="evenodd" transform="translate(-1 -1)">
        <mask id="b" fill="#fff">
            <use xlink:href="#a"/>
        </mask>
        <g fill="#32C5B1" fill-rule="nonzero" mask="url(#b)">
            <path d="M45 1c-1.105 0-2 .895-2 2 0 .293.074.563.188.813l-8 11.187c-.063-.004-.126 0-.188 0-.398 0-.781.11-1.094.313L27 11.874A2.005 2.005 0 0 0 25 10c-1.105 0-2 .895-2 2 0 .105.016.21.031.313l-7.312 5.812A1.987 1.987 0 0 0 15 18c-1 0-1.82.73-1.969 1.688l-6.812 2.75A1.975 1.975 0 0 0 5 22a1.999 1.999 0 1 0 0 4 1.989 1.989 0 0 0 1.969-1.719l6.812-2.718c.34.265.758.437 1.219.437 1.105 0 2-.895 2-2 0-.105-.016-.21-.031-.313l7.312-5.812c.223.086.465.125.719.125.398 0 .781-.11 1.094-.313L33 17.125A2.005 2.005 0 0 0 35 19c1.105 0 2-.895 2-2 0-.293-.074-.563-.188-.813l8-11.187c.063.004.126 0 .188 0a1.999 1.999 0 1 0 0-4zm-4 13v35h8V14h-8zm-20 9v26h8V23h-8zm2 2h4v22h-4V25zm8 3v21h8V28h-8zm2 2h4v17h-4V30zm-22 1v18h8V31h-8zm2 2h4v14h-4V33zM1 35v14h8V35H1zm2 2h4v10H3V37z"/>
        </g>
    </g>
</svg>
