<svg width="9px" height="16px" viewBox="0 0 9 16" version="1.1" xmlns="http://www.w3.org/2000/svg" xmlns:xlink="http://www.w3.org/1999/xlink">
    <g stroke="none" stroke-width="1" fill="none" fill-rule="evenodd">
        <g transform="translate(-15.000000, -12.000000)" fill-rule="nonzero" fill="#1DA196">
            <path d="M17.393,20 L23.701,13.692 C23.9514432,13.4415568 24.0492524,13.0765279 23.9575838,12.7344162 C23.8659153,12.3923044 23.5986956,12.1250847 23.2565838,12.0334162 C22.9144721,11.9417476 22.5494432,12.0395568 22.299,12.29 L15.29,19.3 C15.1038693,19.4853969 14.9992403,19.7372898 14.9992403,20 C14.9992403,20.2627102 15.1038693,20.5146031 15.29,20.7 L22.3,27.71 C22.5504432,27.9604432 22.9154721,28.0582524 23.2575838,27.9665838 C23.5996956,27.8749153 23.8669153,27.6076956 23.9585838,27.2655838 C24.0502524,26.9234721 23.9524432,26.5584432 23.702,26.308 L23.7,26.308 L17.393,20 Z" id="Shape"></path>
        </g>
    </g>
</svg>