<svg xmlns="http://www.w3.org/2000/svg" xmlns:xlink="http://www.w3.org/1999/xlink" width="36" height="46" viewBox="0 0 36 46">
    <defs>
        <path id="a" d="M0 0h50v50H0z"/>
    </defs>
    <g fill="none" fill-rule="evenodd" transform="translate(-7 -2)">
        <mask id="b" fill="#fff">
            <use xlink:href="#a"/>
        </mask>
        <g fill="#32C5B1" fill-rule="nonzero" mask="url(#b)">
            <path d="M7 2v46h36V2H7zm2 2h32v42H9V4zm8.406 4c-2.18.04-2.363 1.715-1.937 3.344 0 0-.23.238-.219.562.023.614.438.813.438.813.078.57.57 1.094.75 1.187 0 .364.035.633 0 1.031-.43 1.16-3.305.825-3.438 3.063h8.875c-.133-2.238-3.004-1.902-3.438-3.063-.035-.398 0-.667 0-1.03.247-.118.668-.61.75-1.188 0 0 .438-.266.438-.719 0-.316-.133-.57-.219-.656.23-.692.64-2.781-.875-2.781-.164-.286-.578-.563-1.125-.563zm10.313 2c-.551.078-.938.59-.86 1.14.078.551.59.938 1.141.86h8c.36.004.695-.184.879-.496a1.01 1.01 0 0 0 0-1.008c-.184-.312-.52-.5-.879-.496H27.719zm0 5c-.551.078-.938.59-.86 1.14.078.551.59.938 1.141.86h8c.36.004.695-.184.879-.496a1.01 1.01 0 0 0 0-1.008c-.184-.312-.52-.5-.879-.496H27.719zm-14 10c-.551.078-.938.59-.86 1.14.079.551.59.938 1.141.86h14c.36.004.695-.184.879-.496a1.01 1.01 0 0 0 0-1.008c-.184-.312-.52-.5-.879-.496H13.719zm19 0c-.551.078-.938.59-.86 1.14.078.551.59.938 1.141.86h3c.36.004.695-.184.879-.496a1.01 1.01 0 0 0 0-1.008c-.184-.312-.52-.5-.879-.496H32.719zm-19 6c-.551.078-.938.59-.86 1.14.079.551.59.938 1.141.86h11c.36.004.695-.184.879-.496a1.01 1.01 0 0 0 0-1.008c-.184-.312-.52-.5-.879-.496H13.719zm19 0H36c.36-.004.695.184.879.496.18.313.18.695 0 1.008-.184.312-.52.5-.879.496h-3a1.012 1.012 0 0 1-1.14-.86 1.012 1.012 0 0 1 .859-1.14zM16 41.5l-1.763.927.336-1.963-1.426-1.391 1.971-.287L16 37l.882 1.786 1.971.287-1.426 1.39.336 1.964L16 41.5zm9 0l-1.763.927.336-1.963-1.426-1.391 1.971-.287L25 37l.882 1.786 1.971.287-1.426 1.39.336 1.964L25 41.5zm9 0l-1.763.927.336-1.963-1.426-1.391 1.971-.287L34 37l.882 1.786 1.971.287-1.426 1.39.336 1.964L34 41.5z"/>
        </g>
    </g>
</svg>
