<svg xmlns="http://www.w3.org/2000/svg" xmlns:xlink="http://www.w3.org/1999/xlink" width="50" height="50" viewBox="0 0 50 50">
    <defs>
        <path id="a" d="M0 0h50v50H0z"/>
    </defs>
    <g fill="none" fill-rule="evenodd">
        <mask id="b" fill="#fff">
            <use xlink:href="#a"/>
        </mask>
        <g fill="#32C5B1" fill-rule="nonzero" mask="url(#b)">
            <path d="M17 0c-4.188 0-7.234 1.41-9.188 3.406C5.86 5.402 5 7.918 5 10.156c0 3.438 1.766 6.02 4.125 7.594C11.485 19.324 14.406 20 17 20c1.43 0 2.96-.219 4.438-.688C23.922 21.915 27.733 23 31 23c2.602 0 5.52-.727 7.875-2.344C41.23 19.04 43 16.438 43 12.97 43 7.457 38.187 3 31 3c-1.707 0-3.203.246-4.531.656C24.363 1.422 21.062 0 17 0zm0 2c3.738 0 6.52 1.23 8.188 3.125.078.223.234.41.437.531C26.535 6.902 27 8.383 27 9.97c0 2.816-1.313 4.699-3.25 6.031a10.59 10.59 0 0 1-1.969 1.063 1 1 0 0 0-.906.312A12.905 12.905 0 0 1 17 18c-2.23 0-4.813-.613-6.75-1.906C8.312 14.8 7 12.93 7 10.156c0-1.726.688-3.777 2.25-5.375C10.813 3.184 13.246 2 17 2zM4 17c-2.105 0-4 1.473-4 3.5S1.895 24 4 24s4-1.473 4-3.5S6.105 17 4 17zm42 1c-2.105 0-4 1.473-4 3.5s1.895 3.5 4 3.5 4-1.473 4-3.5-1.895-3.5-4-3.5zM4 19c1.207 0 2 .77 2 1.5S5.207 22 4 22c-1.207 0-2-.77-2-1.5S2.793 19 4 19zm42 1c1.207 0 2 .77 2 1.5s-.793 1.5-2 1.5c-1.207 0-2-.77-2-1.5s.793-1.5 2-1.5zm-33.563 4c-2.917.05-4.937 1.277-5.78 3.156-.778 1.73-.602 3.809-.095 5.938a2.22 2.22 0 0 0-.406 1.625c.098.781.301 1.37.657 1.812.152.192.37.196.562.313.129.597.277 1.195.531 1.687.16.317.313.598.5.844.047.059.14.098.188.156.004.625.02 1.164-.031 1.813-.145.312-.497.633-1.188.968-.73.356-1.719.692-2.75 1.126-1.031.433-2.117.94-3 1.812C.742 46.121.098 47.371 0 48.938L-.063 50h50.126L50 48.937c-.098-1.562-.746-2.816-1.625-3.687s-1.941-1.379-2.969-1.813c-1.027-.433-2.02-.769-2.75-1.124-.691-.336-1.043-.653-1.187-.97-.051-.648-.035-1.187-.032-1.812.047-.058.141-.093.188-.156.184-.25.344-.559.5-.875.246-.488.375-1.066.5-1.656.191-.117.41-.121.563-.313.355-.441.558-1.031.656-1.812.078-.649-.082-1.157-.344-1.563.297-.984.594-2.422.469-3.968-.07-.899-.29-1.805-.875-2.594-.532-.719-1.418-1.223-2.469-1.438-.77-.8-1.906-1.156-3.188-1.156-2.917.05-4.937 1.277-5.78 3.156-.778 1.73-.602 3.809-.095 5.938a2.22 2.22 0 0 0-.406 1.625c.098.781.301 1.37.657 1.812.152.192.37.196.562.313.129.597.277 1.195.531 1.687.16.317.313.598.5.844.047.059.14.098.188.156.004.625.02 1.164-.032 1.813-.144.312-.496.633-1.187.968-.73.356-1.719.692-2.75 1.126-1.031.433-2.117.94-3 1.812-.883.871-1.527 2.121-1.625 3.688-.098-1.563-.746-2.817-1.625-3.688s-1.941-1.379-2.969-1.813c-1.027-.433-2.02-.769-2.75-1.124-.691-.336-1.043-.653-1.187-.97-.051-.648-.035-1.187-.032-1.812.047-.058.141-.093.188-.156.184-.25.344-.559.5-.875.246-.488.375-1.066.5-1.656.191-.117.41-.121.563-.313.355-.441.558-1.031.656-1.812.078-.649-.082-1.157-.344-1.563.297-.984.594-2.422.469-3.968-.07-.899-.29-1.805-.875-2.594-.532-.719-1.418-1.223-2.469-1.438-.77-.8-1.906-1.156-3.188-1.156zM2 26c-1.105 0-2 .672-2 1.5S.895 29 2 29s2-.672 2-1.5S3.105 26 2 26zm10.438 0h.03c1.134.012 1.774.36 1.876.531l.25.438.5.062c.758.102 1.097.375 1.375.75.277.375.48.907.531 1.563.105 1.316-.313 2.957-.563 3.687l-.25.782.625.374c.028.032.083.114.063.282-.063.508-.2.715-.25.781l-.719.063-.094.843c-.046.438-.242 1.016-.468 1.469-.114.227-.25.406-.344.531-.047.063-.11.106-.125.125l-.438.25v.625c0 .844-.03 1.543.063 2.563v.125l.063.156c.402 1.059 1.304 1.645 2.218 2.094.914.449 1.914.797 2.844 1.187.93.39 1.762.828 2.344 1.407.363.359.601.792.781 1.312H2.25c.18-.52.418-.953.781-1.313.586-.578 1.41-1.015 2.344-1.406.934-.39 1.957-.742 2.875-1.187.918-.446 1.816-1.035 2.219-2.094l.062-.156v-.125c.094-1.02.063-1.719.063-2.563v-.625l-.469-.25c.023.02.016.012-.063-.031-.027-.023-.03-.055-.062-.094a3.993 3.993 0 0 1-.313-.531c-.23-.453-.453-1.04-.5-1.469l-.093-.843-.719-.063c-.05-.066-.188-.273-.25-.781-.02-.168.035-.246.063-.282l.593-.343-.187-.75c-.559-2.094-.621-3.95-.094-5.125.523-1.172 1.527-1.918 3.938-1.969zm25 0h.03c1.134.012 1.774.36 1.876.531l.25.438.5.062c.758.102 1.097.375 1.375.75.277.375.48.907.531 1.563.105 1.316-.313 2.957-.563 3.687l-.25.782.626.374c.027.032.082.114.062.282-.063.508-.2.715-.25.781l-.719.063-.093.843c-.047.438-.243 1.016-.47 1.469-.113.227-.25.406-.343.531-.047.063-.11.106-.125.125l-.438.25v.625c0 .844-.03 1.543.063 2.563v.125l.063.156c.402 1.059 1.304 1.645 2.218 2.094.914.449 1.914.797 2.844 1.187.93.39 1.762.828 2.344 1.407.363.359.601.792.781 1.312h-20.5c.18-.52.418-.953.781-1.313.586-.578 1.41-1.015 2.344-1.406.934-.39 1.957-.742 2.875-1.187.918-.446 1.816-1.035 2.219-2.094l.062-.156v-.125c.094-1.02.063-1.719.063-2.563v-.625l-.469-.25c.023.02.016.008-.063-.031-.027-.023-.03-.055-.062-.094a3.993 3.993 0 0 1-.313-.531c-.23-.453-.453-1.04-.5-1.469l-.093-.843-.719-.063c-.05-.066-.188-.273-.25-.781-.02-.168.035-.246.063-.282l.593-.343-.187-.75c-.559-2.094-.621-3.95-.094-5.125.523-1.172 1.527-1.918 3.938-1.969zM48 27c-1.105 0-2 .672-2 1.5s.895 1.5 2 1.5 2-.672 2-1.5-.895-1.5-2-1.5z"/>
        </g>
    </g>
</svg>
