<svg xmlns="http://www.w3.org/2000/svg" xmlns:xlink="http://www.w3.org/1999/xlink" width="48" height="48" viewBox="0 0 48 48">
    <defs>
        <path id="a" d="M0 0h50v50H0z"/>
    </defs>
    <g fill="none" fill-rule="evenodd" transform="translate(-1 -1)">
        <mask id="b" fill="#fff">
            <use xlink:href="#a"/>
        </mask>
        <g fill="#32C5B1" fill-rule="nonzero" mask="url(#b)">
            <path d="M3.146 1C1.966 1 1 1.965 1 3.146v40.648c0 1.177.965 2.142 2.146 2.142h12.052c.423 0 .818-.112 1.153-.307.32.191.69.307 1.09.307h11.405a12.239 12.239 0 0 1-1.19-2.042H17.44c-.048 0-.1-.052-.1-.1v-31.46c0-.048.052-.1.1-.1h12.056c.048 0 .1.052.1.1v18.363c.61-.69 1.292-1.309 2.042-1.851v-25.7c0-.052.052-.103.1-.103h12.056c.048 0 .1.051.1.103v24.51c.722.332 1.404.731 2.042 1.19v-25.7A2.146 2.146 0 0 0 43.794 1H31.738c-1.18 0-2.142.961-2.142 2.146v7.057c-.036-.004-.068-.012-.1-.012H17.44c-.032 0-.064.008-.1.012V3.146c0-1.18-.965-2.146-2.142-2.146H3.146zm0 2.043h12.052c.044 0 .1.055.1.103v40.748c0-.172-.056 0-.1 0H3.146c-.048 0-.103-.056-.103-.1V3.146c0-.048.055-.103.103-.103zm2.96 6.127a1.027 1.027 0 0 0-.897.507 1.03 1.03 0 0 0 0 1.03c.187.318.53.51.897.506h6.128c.367.004.71-.188.898-.507a1.03 1.03 0 0 0 0-1.03c-.188-.318-.53-.51-.898-.506H6.106zm28.596 0a1.027 1.027 0 0 0-.897.507 1.03 1.03 0 0 0 0 1.03c.187.318.53.51.897.506h6.128c.367.004.71-.188.897-.507a1.03 1.03 0 0 0 0-1.03c-.187-.318-.53-.51-.897-.506h-6.128zm-14.298 9.192a1.027 1.027 0 0 0-.897.506 1.03 1.03 0 0 0 0 1.03c.187.319.53.51.897.506h6.128c.367.004.71-.187.898-.506a1.03 1.03 0 0 0 0-1.03c-.188-.319-.531-.51-.898-.506h-6.128zm18.383 10.212c5.63 0 10.213 4.584 10.213 10.213C49 44.417 44.416 49 38.787 49s-10.213-4.584-10.213-10.213 4.584-10.213 10.213-10.213zm4.329 5.462l-5.506 6.427-3.319-2.494-1.22 1.636 4.85 3.634 6.75-7.87-1.555-1.333zM6.106 32.66a1.027 1.027 0 0 0-.897.506 1.03 1.03 0 0 0 0 1.03c.187.319.53.51.897.506h6.128c.367.004.71-.187.898-.507a1.03 1.03 0 0 0 0-1.029c-.188-.319-.53-.51-.898-.506H6.106zm0 4.085a1.027 1.027 0 0 0-.897.506 1.03 1.03 0 0 0 0 1.03c.187.319.53.51.897.506h6.128c.367.004.71-.187.898-.506a1.03 1.03 0 0 0 0-1.03c-.188-.319-.53-.51-.898-.506H6.106zm14.298 1.021c-.562 0-1.021.459-1.021 1.021 0 .563.459 1.022 1.021 1.022h6.18c-.028-.34-.052-.675-.052-1.022s.024-.682.052-1.021h-6.18z"/>
        </g>
    </g>
</svg>
