<svg xmlns="http://www.w3.org/2000/svg" xmlns:xlink="http://www.w3.org/1999/xlink" width="61" height="30" viewBox="0 0 61 30">
    <defs>
        <path id="a" d="M0 0h80v48H0z"/>
    </defs>
    <g fill="none" fill-rule="evenodd" transform="translate(-10 -9)">
        <mask id="b" fill="#fff">
            <use xlink:href="#a"/>
        </mask>
        <g fill="#E6282D" mask="url(#b)">
            <path d="M43.098 9.206c.49.14.978.29 1.472.418 5.823 1.497 10.293 6.692 10.893 12.68.047.47.007.947.007 1.476h-3.644c-.133-.748-.234-1.52-.408-2.276-1.256-5.442-6.089-8.887-11.74-8.386-5.134.456-9.296 5.068-9.529 10.561-.225 5.304 3.57 10.08 8.836 10.992 1.55.268 3.149.361 4.726.368 8.375.035 16.75.016 25.126.016h1.275v3.822c-.383.018-.72.047-1.056.047-8.514.003-17.027.009-25.54 0-3.4-.004-6.75-.278-9.792-2.034-5.194-2.999-8.204-9.143-7.285-14.88 1.048-6.544 5.505-11.317 11.751-12.59.195-.04.376-.142.564-.214h4.344M23.86 9.206v29.63h-3.857V13.092h-5.66V9.206h9.517"/>
            <path d="M70.118 28.838v3.671c-.348.018-.68.05-1.012.05-8.758.001-17.515.006-26.272-.012a24.032 24.032 0 0 1-3.09-.21c-4.31-.568-7.485-4.568-7.146-8.953.344-4.448 3.976-7.863 8.35-7.853 4.375.01 8.07 3.515 8.308 7.886.005.1-.027.203-.05.362h-3.524l-.258-.975c-.636-2.362-2.728-3.774-5.157-3.482-2.18.263-3.953 2.297-4 4.59a4.675 4.675 0 0 0 4.05 4.738c.953.128 1.923.179 2.885.18 8.55.014 17.101.008 25.652.008h1.264M10.092 15.07c2.484 0 4.889-.016 7.293.026.207.004.454.356.594.598.09.154.02.403.02.61 0 7.13-.021 14.259.023 21.388.007 1.019-.303 1.333-1.28 1.235-.774-.078-1.562-.016-2.468-.016V18.88h-4.182v-3.81"/>
        </g>
    </g>
</svg>
