<svg xmlns="http://www.w3.org/2000/svg" xmlns:xlink="http://www.w3.org/1999/xlink" width="55" height="36" viewBox="0 0 55 36">
    <defs>
        <path id="a" d="M0 0h80v48H0z"/>
    </defs>
    <g fill="none" fill-rule="evenodd" transform="translate(-20 -6)">
        <mask id="b" fill="#fff">
            <use xlink:href="#a"/>
        </mask>
        <g mask="url(#b)">
            <path fill="#1999D8" d="M28.444 22.465c-.38.129-.742.286-1.041.568-.737.697-.688 1.533.168 2.074.795.502 1.72.64 2.623.808 2.17.403 4.361.695 6.468 1.392 2.589.856 4.701 2.198 5.123 5.169.464 3.268-.833 5.759-3.554 7.52-4.404 2.85-12.413 2.443-16.082-1.819-.744-.864-1.404-1.78-1.636-2.931a2.57 2.57 0 0 1-.138-.624c-.112-.881.016-1.03.883-1.034 1.345-.005 2.69.02 4.033-.013.495-.012.89.11 1.223.462 1.895 2.386 5.24 2.565 7.651 1.718.85-.299 1.522-.793 1.496-1.85-.026-1.049-.79-1.397-1.583-1.664-1.865-.627-3.837-.748-5.749-1.157-2.17-.465-4.295-1.04-5.973-2.62-.773-.726-1.384-1.556-1.488-2.663-.092-1.021-.12-2.043.016-3.063.439-2.268 1.887-3.819 3.853-4.744 4.218-1.986 8.488-2.005 12.6.353 1.905 1.093 3.124 2.8 3.763 4.925.207.69.032.863-.644.837-1.226-.046-2.455-.033-3.682-.045-1.106-.082-2.1-.376-2.82-1.318-.311-.41-.846-.417-1.319-.5-1.41-.157-2.815-.246-4.19.219z"/>
            <path fill="#2A2929" d="M51.559 32.005c0 2.83-.017 5.66.013 8.49.006.59-.135.785-.753.766a69.998 69.998 0 0 0-4.613.002c-.674.024-.79-.203-.787-.824.025-5.536-.002-11.073.033-16.61.005-.801-.138-1.106-1.024-1.072-1.912.073-1.914.02-1.915-1.87-.001-.954.024-1.909-.01-2.861-.02-.532.097-.77.7-.763.723.01 1.667.34 2.113-.15.385-.424.217-1.34.316-2.034.716-5.03 4.704-8.315 9.614-7.951.643.047.976.176.931.952-.08 1.38-.046 2.767-.012 4.15.014.557-.078.789-.728.79-2.424.002-3.641 1.196-3.859 3.63-.041.472.065.66.575.644 1.014-.034 2.03.013 3.044-.021.534-.018.772.099.752.704a71.893 71.893 0 0 0-.002 4.151c.014.536-.164.683-.678.663-.952-.037-1.909.032-2.86-.025-.668-.04-.883.123-.87.842.049 2.798.02 5.598.02 8.397"/>
            <path fill="#D71C32" d="M65.508 20.063c-1.932-1.932-3.88-3.85-5.8-5.793-1.85-1.87-1.883-4.753-.108-6.638 1.746-1.855 4.552-1.983 6.537-.23.449.396.65.273 1.023-.03 2.177-1.776 4.933-1.56 6.73.5 1.658 1.902 1.413 4.728-.573 6.595l-5.919 5.88c-.714.462-1.326.279-1.89-.284zm1.096-2.688c1.763-1.759 3.54-3.494 5.266-5.277.568-.585.514-1.373.221-2.076-.29-.7-.881-1.039-1.657-1.115-1.085-.106-1.671.625-2.318 1.277-1.19 1.199-1.738 1.196-2.873-.001-.189-.2-.408-.37-.616-.55-1.095-.951-2.281-1-3.103-.128-.829.88-.72 2.058.308 3.093 1.577 1.59 3.166 3.17 4.772 4.777z"/>
            <path fill="#1999D8" d="M20.954 33.686c-.31-.023-.423.18-.426.464-.004.365.03.93.026 1.296-.092-.184-.1-.233-.111-.258-.732-1.62-.65-1.755 1.075-1.756 1.345 0 2.69.014 4.033-.006.48-.007.85.077.963.61-1.815-.719-3.708-.212-5.56-.35zM32.635 22.246c.933-.093 1.71.137 2.148 1.05.215.447.612.39 1.008.425.343.03.828-.254.983.343-.397.011-.795.001-1.19.039-.478.045-.774-.106-1.018-.556-.405-.745-1.24-.933-1.93-1.301"/>
        </g>
    </g>
</svg>
