<svg xmlns="http://www.w3.org/2000/svg" xmlns:xlink="http://www.w3.org/1999/xlink" width="77" height="30" viewBox="0 0 77 30">
    <defs>
        <path id="a" d="M0 0h80v48H0z"/>
    </defs>
    <g fill="none" fill-rule="evenodd" transform="translate(-2 -9)">
        <mask id="b" fill="#fff">
            <use xlink:href="#a"/>
        </mask>
        <g mask="url(#b)">
            <path fill="#1A1919" d="M72.711 18.706c-.21-.01-.35-.024-.49-.024-1.43-.002-2.86 0-4.342 0v19.786h-3.34v-19.78h-2.565v-2.153h2.554c0-.876.046-1.696-.009-2.51-.179-2.651 2.021-4.917 4.726-4.721.249.018.5.002.791.002v3.328c-.368 0-.722-.011-1.074.003-.6.023-1.066.403-1.09.977-.038.944-.01 1.89-.01 2.866h4.835v-5.09h3.354v5.119h1.474v2.168h-1.472v14.87c0 1.31.29 1.596 1.61 1.6h.57v3.287c-3.168.57-5.525-1.64-5.523-4.51.004-4.838.001-9.676.001-14.513v-.705M41.305 31.084H39.7V30v-1.065h4.956v1.171c0 1.362-.008 2.723.003 4.085.006.689.46 1.193 1.045 1.206.613.013 1.09-.503 1.091-1.207.005-2.096.023-4.192-.02-6.287-.006-.347-.217-.76-.463-1.02a129.227 129.227 0 0 0-3.475-3.515c-1.042-1.02-1.57-2.218-1.544-3.693.037-2.06-.004-4.12.013-6.18.019-2.163 1.43-3.877 3.535-4.336 2.647-.578 5.24 1.455 5.295 4.165.02 1.035.003 2.072.003 3.176h1.586v2.136h-4.928v-.576c0-1.487.004-2.974-.002-4.46-.002-.703-.42-1.164-1.047-1.18-.61-.017-1.085.462-1.088 1.145-.01 2.114-.026 4.228.017 6.341.007.348.221.762.469 1.022 1.2 1.256 2.44 2.474 3.675 3.696.886.877 1.328 1.925 1.321 3.175-.01 2.168.004 4.336-.004 6.503-.01 2.463-1.933 4.413-4.371 4.449-2.41.035-4.407-1.913-4.459-4.37-.022-1.071-.003-2.143-.003-3.297"/>
            <path fill="#C53319" d="M30.353 9.343h3.21v7.64c.32-.31.545-.493.726-.712.254-.309.534-.403.938-.34 2.315.358 3.835 2.098 3.837 4.44.003 4.586.007 9.171-.002 13.757-.005 2.22-1.664 4.081-3.788 4.32-.43.048-.756-.035-1.039-.377-.271-.329-.586-.622-.917-.968-.694 1.189-1.694 1.517-2.965 1.315V9.343zm5.438 17.853c0-2.255.007-4.51-.003-6.765-.003-.744-.484-1.247-1.13-1.236-.617.011-1.052.51-1.076 1.236-.002.054-.001.107-.001.16V33.8c0 .16 0 .324.029.48.098.524.54.9 1.047.911.52.011.965-.33 1.085-.859.043-.189.048-.39.048-.585.003-2.183.002-4.367.001-6.55z"/>
            <path fill="#1A1919" d="M52.377 27.152c0-2.454-.038-4.908.011-7.36.046-2.288 2.118-4.151 4.464-4.106 2.359.045 4.328 1.961 4.333 4.252.011 4.836.01 9.671 0 14.507-.005 2.324-1.97 4.255-4.347 4.306-2.344.05-4.405-1.846-4.45-4.187-.048-2.47-.011-4.942-.01-7.412zm3.328-.003v.484c0 2.184-.006 4.369.003 6.554.003.872.733 1.43 1.458 1.12.523-.225.7-.663.699-1.217-.007-4.584-.003-9.168-.004-13.752 0-.828-.401-1.29-1.102-1.285-.662.005-1.053.473-1.054 1.274v6.822z"/>
            <path fill="#C53319" d="M24.502 31.376h3.272c0 .32.01.633-.001.945-.034.983.03 1.983-.133 2.943-.342 2.007-2.222 3.594-4.49 3.434-2.42-.17-4.156-1.978-4.17-4.3-.027-4.802-.032-9.605.003-14.407.017-2.38 1.95-4.235 4.31-4.26 2.437-.024 4.38 1.724 4.447 4.154.075 2.757.026 5.518.028 8.277 0 .068-.024.136-.045.248h-5.382c-.03.14-.072.24-.072.34-.004 1.809-.01 3.619 0 5.428.003.67.4 1.15.972 1.237.44.067 1.003-.26 1.146-.715.084-.267.105-.562.11-.846.014-.805.005-1.61.005-2.478zm-.042-6.262c0-1.736.028-3.43-.016-5.122-.016-.618-.562-1.016-1.128-.982-.592.036-1.034.5-1.046 1.15-.017.948-.005 1.896-.005 2.844v2.11h2.195zM5.347 9.35v24.627c.006 1.182.602 1.633 1.597 1.33l1.05 2.816c-.87.605-1.911.744-3.01.45-1.745-.466-2.924-1.986-2.926-3.79-.008-8.329-.004-16.657-.003-24.985 0-.14.016-.28.025-.448h3.267M7.58 9.344h3.274v.546c0 6.324-.005 12.647.01 18.971.002.41-.127.574-.497.727-1.109.46-1.956 1.238-2.55 2.286-.058.103-.122.204-.237.393V9.344M16.306 30.368a5.731 5.731 0 0 0-3.245-1.305V9.357h3.245v21.011"/>
            <path fill="#1A1919" d="M12.708 38.896c-2.34 0-4.204-1.863-4.19-4.185a4.154 4.154 0 0 1 4.18-4.14c2.353 0 4.18 1.828 4.179 4.18a4.137 4.137 0 0 1-4.169 4.145"/>
        </g>
    </g>
</svg>
