<?xml version="1.0" encoding="UTF-8"?>
<svg width="431px" height="862px" viewBox="0 0 431 862" version="1.1" xmlns="http://www.w3.org/2000/svg" xmlns:xlink="http://www.w3.org/1999/xlink">
    <g stroke="none" stroke-width="1" fill="none" fill-rule="evenodd">
        <g fill-rule="nonzero">
            <path d="M1.96201,116.999997 C1.79787,116.999997 1.6535,117.053743 1.50152,117.091061 L1.50152,117.058216 L1.35562,117.11942 L1.05471,117.246302 L0.737082,117.455285 L0.512158,117.653825 L0.265957,118.01357 L0.144377,118.22703 C0.056231,118.44497 3.76832077e-08,118.67785 3.76832077e-08,118.92564 L3.76832077e-08,147.0729 C3.76832077e-08,147.3222 0.056231,147.555 0.144377,147.7715 L0.265957,147.9849 L0.512158,148.3447 L0.737082,148.5432 L1.05471,148.7537 L1.35562,148.8791 L1.50152,148.9403 L1.50152,148.9089 C1.6535,148.9448 1.79787,149 1.96201,149 L3,149 L3,116.999997 L1.96201,116.999997 Z" id="path0_fill" fill="#A6A6A6"></path>
            <path d="M1.96201,178.999999 C1.79787,178.999999 1.6535,179.058369 1.50152,179.096233 L1.50152,179.063108 L1.35562,179.127793 L1.05471,179.260317 L0.737082,179.482768 L0.512158,179.692604 L0.265957,180.07282 L0.144377,180.29842 C0.056231,180.52876 3.76832e-08,180.77331 3.76832e-08,181.03678 L3.76832e-08,240.9632 C3.76832e-08,241.2267 0.056231,241.4712 0.144377,241.7016 L0.265957,241.9272 L0.512158,242.3074 L0.738602,242.5172 L1.05319,242.7381 L1.35866,242.8738 L1.50152,242.9369 L1.50152,242.9038 C1.6535,242.9432 1.79787,243 1.96201,243 L3,243 L3,178.999999 L1.96201,178.999999 Z" id="path1_fill" fill="#A6A6A6"></path>
            <path d="M2.2981,257.999995 C2.1057,257.999995 1.93646,258.058376 1.75831,258.09624 L1.75831,258.063115 L1.58729,258.127801 L1.23634,258.260325 L0.860451,258.484352 L0.602138,258.691022 L0.308195,259.07598 L0.16924,259.29685 C0.0659145,259.52719 -3.90757e-08,259.7733 -3.90757e-08,260.03677 L-3.90757e-08,319.9632 C-3.90757e-08,320.2267 0.0659145,320.4712 0.16924,320.7016 L0.308195,320.924 L0.602138,321.309 L0.860451,321.5156 L1.23456,321.7397 L1.58907,321.8738 L1.75831,321.9369 L1.75831,321.9038 C1.93646,321.9416 2.1057,322 2.2981,322 L3,322 L3,257.999995 L2.2981,257.999995 Z" id="path2_fill" fill="#A6A6A6"></path>
            <path d="M430.87952,298.0526 C430.95129,297.7802 431.00002,297.4937 431.00002,297.1916 L431.00002,202.80838 C431.00002,202.50626 430.95129,202.21978 430.87952,201.94739 L430.84749,201.82373 C430.76676,201.5623 430.65528,201.3228 430.51816,201.10677 L430.46306,201.02379 C430.15165,200.565117 429.73004,200.230116 429.24178,200.086096 C429.0675,200.034436 428.889373,200.000008 428.700992,200.000008 L428.000013,200.000008 L428.000013,300 L428.700992,300 C429.41351,300 430.04144,299.5961 430.46306,298.9762 L430.51816,298.8932 C430.65528,298.6772 430.76676,298.4377 430.84749,298.1763 L430.87952,298.0526 Z" id="path3_fill" fill="#A6A6A6"></path>
            <path d="M407.946,17.3804 C425.668,34.7856 428.54,52.228 428.54,80.2759 L428.54,781.726 C428.54,809.773 425.668,827.213 407.946,844.62 C390.832,861.427 366.137,862.003 357.774,862 L73.7673,862 C65.4041,862.003 40.709,861.427 23.5947,844.62 C5.8728,827.213 3,809.773 3,781.726 L3,80.2759 C3,52.228 5.8728,34.7856 23.5947,17.3804 C40.709,0.571777 65.4041,0 73.7673,0 L357.774,0 C366.137,0 390.832,0.571777 407.946,17.3804 Z M390.095,36.0259 C385.434,31.4512 376.059,25.9985 357.863,26 L73.1265,26 C54.939,26 45.5662,31.4526 40.9053,36.0259 C29.9504,46.7803 28,57.0513 28,80.5903 L28,783.411 C28,806.949 29.9504,817.222 40.9067,827.975 C45.5662,832.549 54.9421,838.003 73.1389,838 L357.874,838 C376.064,838 385.435,832.549 390.095,827.975 C401.05,817.222 403,806.949 403,783.411 L403,80.5903 C403,57.0513 401.05,46.7803 390.095,36.0259 Z" id="path4_fill" fill="#E4E4E4"></path>
        </g>
    </g>
</svg>